<?xml version="1.0" encoding="UTF-8" standalone="no"?>
<!DOCTYPE svg PUBLIC "-//W3C//DTD SVG 1.1//EN"
 "http://www.w3.org/Graphics/SVG/1.1/DTD/svg11.dtd">
<!-- Generated by graphviz version 2.50.0 (0)
 -->
<!-- Title: Tree Pages: 1 -->
<svg width="1342pt" height="460pt"
 viewBox="0.00 0.00 1342.00 460.00" xmlns="http://www.w3.org/2000/svg" xmlns:xlink="http://www.w3.org/1999/xlink">
<g id="graph0" class="graph" transform="scale(1 1) rotate(0) translate(4 456)">
<title>Tree</title>
<polygon fill="white" stroke="transparent" points="-4,4 -4,-456 1338,-456 1338,4 -4,4"/>
<!-- 0 -->
<g id="node1" class="node">
<title>0</title>
<path fill="#f6d6be" stroke="black" d="M814,-452C814,-452 687,-452 687,-452 681,-452 675,-446 675,-440 675,-440 675,-396 675,-396 675,-390 681,-384 687,-384 687,-384 814,-384 814,-384 820,-384 826,-390 826,-396 826,-396 826,-440 826,-440 826,-446 820,-452 814,-452"/>
<text text-anchor="start" x="703.5" y="-436.8" font-family="Helvetica,sans-Serif" font-size="14.00">MedInc ≤ 5.029</text>
<text text-anchor="start" x="683" y="-421.8" font-family="Helvetica,sans-Serif" font-size="14.00">squared_error = 1.335</text>
<text text-anchor="start" x="698" y="-406.8" font-family="Helvetica,sans-Serif" font-size="14.00">samples = 15480</text>
<text text-anchor="start" x="709.5" y="-391.8" font-family="Helvetica,sans-Serif" font-size="14.00">value = 2.074</text>
</g>
<!-- 1 -->
<g id="node2" class="node">
<title>1</title>
<path fill="#f8dfcd" stroke="black" d="M561,-348C561,-348 434,-348 434,-348 428,-348 422,-342 422,-336 422,-336 422,-292 422,-292 422,-286 428,-280 434,-280 434,-280 561,-280 561,-280 567,-280 573,-286 573,-292 573,-292 573,-336 573,-336 573,-342 567,-348 561,-348"/>
<text text-anchor="start" x="450.5" y="-332.8" font-family="Helvetica,sans-Serif" font-size="14.00">MedInc ≤ 3.074</text>
<text text-anchor="start" x="430" y="-317.8" font-family="Helvetica,sans-Serif" font-size="14.00">squared_error = 0.832</text>
<text text-anchor="start" x="445" y="-302.8" font-family="Helvetica,sans-Serif" font-size="14.00">samples = 12163</text>
<text text-anchor="start" x="456.5" y="-287.8" font-family="Helvetica,sans-Serif" font-size="14.00">value = 1.736</text>
</g>
<!-- 0&#45;&gt;1 -->
<g id="edge1" class="edge">
<title>0&#45;&gt;1</title>
<path fill="none" stroke="black" d="M674.93,-386.53C645.9,-374.83 612.56,-361.39 582.68,-349.34"/>
<polygon fill="black" stroke="black" points="583.7,-345.98 573.11,-345.48 581.08,-352.47 583.7,-345.98"/>
<text text-anchor="middle" x="582.9" y="-364.79" font-family="Helvetica,sans-Serif" font-size="14.00">True</text>
</g>
<!-- 134 -->
<g id="node17" class="node">
<title>134</title>
<path fill="#efb285" stroke="black" d="M900,-348C900,-348 773,-348 773,-348 767,-348 761,-342 761,-336 761,-336 761,-292 761,-292 761,-286 767,-280 773,-280 773,-280 900,-280 900,-280 906,-280 912,-286 912,-292 912,-292 912,-336 912,-336 912,-342 906,-348 900,-348"/>
<text text-anchor="start" x="793" y="-332.8" font-family="Helvetica,sans-Serif" font-size="14.00">MedInc ≤ 6.82</text>
<text text-anchor="start" x="769" y="-317.8" font-family="Helvetica,sans-Serif" font-size="14.00">squared_error = 1.214</text>
<text text-anchor="start" x="788" y="-302.8" font-family="Helvetica,sans-Serif" font-size="14.00">samples = 3317</text>
<text text-anchor="start" x="795.5" y="-287.8" font-family="Helvetica,sans-Serif" font-size="14.00">value = 3.316</text>
</g>
<!-- 0&#45;&gt;134 -->
<g id="edge16" class="edge">
<title>0&#45;&gt;134</title>
<path fill="none" stroke="black" d="M778.42,-383.88C785.93,-374.98 794.14,-365.24 801.97,-355.96"/>
<polygon fill="black" stroke="black" points="804.65,-358.2 808.42,-348.3 799.3,-353.69 804.65,-358.2"/>
<text text-anchor="middle" x="810.54" y="-369.51" font-family="Helvetica,sans-Serif" font-size="14.00">False</text>
</g>
<!-- 2 -->
<g id="node3" class="node">
<title>2</title>
<path fill="#fbeadf" stroke="black" d="M308,-244C308,-244 181,-244 181,-244 175,-244 169,-238 169,-232 169,-232 169,-188 169,-188 169,-182 175,-176 181,-176 181,-176 308,-176 308,-176 314,-176 320,-182 320,-188 320,-188 320,-232 320,-232 320,-238 314,-244 308,-244"/>
<text text-anchor="start" x="186.5" y="-228.8" font-family="Helvetica,sans-Serif" font-size="14.00">AveRooms ≤ 4.314</text>
<text text-anchor="start" x="177" y="-213.8" font-family="Helvetica,sans-Serif" font-size="14.00">squared_error = 0.546</text>
<text text-anchor="start" x="196" y="-198.8" font-family="Helvetica,sans-Serif" font-size="14.00">samples = 5869</text>
<text text-anchor="start" x="203.5" y="-183.8" font-family="Helvetica,sans-Serif" font-size="14.00">value = 1.352</text>
</g>
<!-- 1&#45;&gt;2 -->
<g id="edge2" class="edge">
<title>1&#45;&gt;2</title>
<path fill="none" stroke="black" d="M421.93,-282.53C392.9,-270.83 359.56,-257.39 329.68,-245.34"/>
<polygon fill="black" stroke="black" points="330.7,-241.98 320.11,-241.48 328.08,-248.47 330.7,-241.98"/>
</g>
<!-- 59 -->
<g id="node10" class="node">
<title>59</title>
<path fill="#f6d5bd" stroke="black" d="M561,-244C561,-244 434,-244 434,-244 428,-244 422,-238 422,-232 422,-232 422,-188 422,-188 422,-182 428,-176 434,-176 434,-176 561,-176 561,-176 567,-176 573,-182 573,-188 573,-188 573,-232 573,-232 573,-238 567,-244 561,-244"/>
<text text-anchor="start" x="441.5" y="-228.8" font-family="Helvetica,sans-Serif" font-size="14.00">AveOccup ≤ 2.344</text>
<text text-anchor="start" x="430" y="-213.8" font-family="Helvetica,sans-Serif" font-size="14.00">squared_error = 0.834</text>
<text text-anchor="start" x="449" y="-198.8" font-family="Helvetica,sans-Serif" font-size="14.00">samples = 6294</text>
<text text-anchor="start" x="456.5" y="-183.8" font-family="Helvetica,sans-Serif" font-size="14.00">value = 2.093</text>
</g>
<!-- 1&#45;&gt;59 -->
<g id="edge9" class="edge">
<title>1&#45;&gt;59</title>
<path fill="none" stroke="black" d="M497.5,-279.88C497.5,-271.78 497.5,-262.98 497.5,-254.47"/>
<polygon fill="black" stroke="black" points="501,-254.3 497.5,-244.3 494,-254.3 501,-254.3"/>
</g>
<!-- 3 -->
<g id="node4" class="node">
<title>3</title>
<path fill="#f9e3d3" stroke="black" d="M139,-140C139,-140 12,-140 12,-140 6,-140 0,-134 0,-128 0,-128 0,-84 0,-84 0,-78 6,-72 12,-72 12,-72 139,-72 139,-72 145,-72 151,-78 151,-84 151,-84 151,-128 151,-128 151,-134 145,-140 139,-140"/>
<text text-anchor="start" x="28.5" y="-124.8" font-family="Helvetica,sans-Serif" font-size="14.00">MedInc ≤ 2.215</text>
<text text-anchor="start" x="8" y="-109.8" font-family="Helvetica,sans-Serif" font-size="14.00">squared_error = 0.648</text>
<text text-anchor="start" x="27" y="-94.8" font-family="Helvetica,sans-Serif" font-size="14.00">samples = 2454</text>
<text text-anchor="start" x="34.5" y="-79.8" font-family="Helvetica,sans-Serif" font-size="14.00">value = 1.618</text>
</g>
<!-- 2&#45;&gt;3 -->
<g id="edge3" class="edge">
<title>2&#45;&gt;3</title>
<path fill="none" stroke="black" d="M189.63,-175.88C173.46,-166.12 155.64,-155.37 138.97,-145.31"/>
<polygon fill="black" stroke="black" points="140.75,-142.3 130.38,-140.12 137.14,-148.29 140.75,-142.3"/>
</g>
<!-- 28 -->
<g id="node7" class="node">
<title>28</title>
<path fill="#fcf0e7" stroke="black" d="M308,-140C308,-140 181,-140 181,-140 175,-140 169,-134 169,-128 169,-128 169,-84 169,-84 169,-78 175,-72 181,-72 181,-72 308,-72 308,-72 314,-72 320,-78 320,-84 320,-84 320,-128 320,-128 320,-134 314,-140 308,-140"/>
<text text-anchor="start" x="197.5" y="-124.8" font-family="Helvetica,sans-Serif" font-size="14.00">MedInc ≤ 2.415</text>
<text text-anchor="start" x="177" y="-109.8" font-family="Helvetica,sans-Serif" font-size="14.00">squared_error = 0.385</text>
<text text-anchor="start" x="196" y="-94.8" font-family="Helvetica,sans-Serif" font-size="14.00">samples = 3415</text>
<text text-anchor="start" x="203.5" y="-79.8" font-family="Helvetica,sans-Serif" font-size="14.00">value = 1.161</text>
</g>
<!-- 2&#45;&gt;28 -->
<g id="edge6" class="edge">
<title>2&#45;&gt;28</title>
<path fill="none" stroke="black" d="M244.5,-175.88C244.5,-167.78 244.5,-158.98 244.5,-150.47"/>
<polygon fill="black" stroke="black" points="248,-150.3 244.5,-140.3 241,-150.3 248,-150.3"/>
</g>
<!-- 4 -->
<g id="node5" class="node">
<title>4</title>
<path fill="#c0c0c0" stroke="black" d="M78.5,-36C78.5,-36 48.5,-36 48.5,-36 42.5,-36 36.5,-30 36.5,-24 36.5,-24 36.5,-12 36.5,-12 36.5,-6 42.5,0 48.5,0 48.5,0 78.5,0 78.5,0 84.5,0 90.5,-6 90.5,-12 90.5,-12 90.5,-24 90.5,-24 90.5,-30 84.5,-36 78.5,-36"/>
<text text-anchor="middle" x="63.5" y="-14.3" font-family="Helvetica,sans-Serif" font-size="14.00">(...)</text>
</g>
<!-- 3&#45;&gt;4 -->
<g id="edge4" class="edge">
<title>3&#45;&gt;4</title>
<path fill="none" stroke="black" d="M70.89,-72C69.72,-63.56 68.47,-54.59 67.33,-46.47"/>
<polygon fill="black" stroke="black" points="70.78,-45.82 65.93,-36.4 63.84,-46.79 70.78,-45.82"/>
</g>
<!-- 17 -->
<g id="node6" class="node">
<title>17</title>
<path fill="#c0c0c0" stroke="black" d="M150.5,-36C150.5,-36 120.5,-36 120.5,-36 114.5,-36 108.5,-30 108.5,-24 108.5,-24 108.5,-12 108.5,-12 108.5,-6 114.5,0 120.5,0 120.5,0 150.5,0 150.5,0 156.5,0 162.5,-6 162.5,-12 162.5,-12 162.5,-24 162.5,-24 162.5,-30 156.5,-36 150.5,-36"/>
<text text-anchor="middle" x="135.5" y="-14.3" font-family="Helvetica,sans-Serif" font-size="14.00">(...)</text>
</g>
<!-- 3&#45;&gt;17 -->
<g id="edge5" class="edge">
<title>3&#45;&gt;17</title>
<path fill="none" stroke="black" d="M98.53,-72C104.8,-63 111.52,-53.38 117.47,-44.84"/>
<polygon fill="black" stroke="black" points="120.51,-46.61 123.36,-36.4 114.77,-42.6 120.51,-46.61"/>
</g>
<!-- 29 -->
<g id="node8" class="node">
<title>29</title>
<path fill="#c0c0c0" stroke="black" d="M223.5,-36C223.5,-36 193.5,-36 193.5,-36 187.5,-36 181.5,-30 181.5,-24 181.5,-24 181.5,-12 181.5,-12 181.5,-6 187.5,0 193.5,0 193.5,0 223.5,0 223.5,0 229.5,0 235.5,-6 235.5,-12 235.5,-12 235.5,-24 235.5,-24 235.5,-30 229.5,-36 223.5,-36"/>
<text text-anchor="middle" x="208.5" y="-14.3" font-family="Helvetica,sans-Serif" font-size="14.00">(...)</text>
</g>
<!-- 28&#45;&gt;29 -->
<g id="edge7" class="edge">
<title>28&#45;&gt;29</title>
<path fill="none" stroke="black" d="M230.68,-72C227.04,-63.28 223.14,-53.98 219.66,-45.65"/>
<polygon fill="black" stroke="black" points="222.88,-44.28 215.79,-36.4 216.42,-46.98 222.88,-44.28"/>
</g>
<!-- 44 -->
<g id="node9" class="node">
<title>44</title>
<path fill="#c0c0c0" stroke="black" d="M295.5,-36C295.5,-36 265.5,-36 265.5,-36 259.5,-36 253.5,-30 253.5,-24 253.5,-24 253.5,-12 253.5,-12 253.5,-6 259.5,0 265.5,0 265.5,0 295.5,0 295.5,0 301.5,0 307.5,-6 307.5,-12 307.5,-12 307.5,-24 307.5,-24 307.5,-30 301.5,-36 295.5,-36"/>
<text text-anchor="middle" x="280.5" y="-14.3" font-family="Helvetica,sans-Serif" font-size="14.00">(...)</text>
</g>
<!-- 28&#45;&gt;44 -->
<g id="edge8" class="edge">
<title>28&#45;&gt;44</title>
<path fill="none" stroke="black" d="M258.32,-72C261.96,-63.28 265.86,-53.98 269.34,-45.65"/>
<polygon fill="black" stroke="black" points="272.58,-46.98 273.21,-36.4 266.12,-44.28 272.58,-46.98"/>
</g>
<!-- 60 -->
<g id="node11" class="node">
<title>60</title>
<path fill="#f2c09c" stroke="black" d="M477,-140C477,-140 350,-140 350,-140 344,-140 338,-134 338,-128 338,-128 338,-84 338,-84 338,-78 344,-72 350,-72 350,-72 477,-72 477,-72 483,-72 489,-78 489,-84 489,-84 489,-128 489,-128 489,-134 483,-140 477,-140"/>
<text text-anchor="start" x="361" y="-124.8" font-family="Helvetica,sans-Serif" font-size="14.00">HouseAge ≤ 21.5</text>
<text text-anchor="start" x="346" y="-109.8" font-family="Helvetica,sans-Serif" font-size="14.00">squared_error = 1.287</text>
<text text-anchor="start" x="365" y="-94.8" font-family="Helvetica,sans-Serif" font-size="14.00">samples = 1372</text>
<text text-anchor="start" x="372.5" y="-79.8" font-family="Helvetica,sans-Serif" font-size="14.00">value = 2.828</text>
</g>
<!-- 59&#45;&gt;60 -->
<g id="edge10" class="edge">
<title>59&#45;&gt;60</title>
<path fill="none" stroke="black" d="M470.23,-175.88C462.97,-167.07 455.03,-157.43 447.46,-148.24"/>
<polygon fill="black" stroke="black" points="449.98,-145.79 440.92,-140.3 444.58,-150.24 449.98,-145.79"/>
</g>
<!-- 85 -->
<g id="node14" class="node">
<title>85</title>
<path fill="#f8dbc6" stroke="black" d="M646,-140C646,-140 519,-140 519,-140 513,-140 507,-134 507,-128 507,-128 507,-84 507,-84 507,-78 513,-72 519,-72 519,-72 646,-72 646,-72 652,-72 658,-78 658,-84 658,-84 658,-128 658,-128 658,-134 652,-140 646,-140"/>
<text text-anchor="start" x="535.5" y="-124.8" font-family="Helvetica,sans-Serif" font-size="14.00">MedInc ≤ 4.071</text>
<text text-anchor="start" x="515" y="-109.8" font-family="Helvetica,sans-Serif" font-size="14.00">squared_error = 0.516</text>
<text text-anchor="start" x="534" y="-94.8" font-family="Helvetica,sans-Serif" font-size="14.00">samples = 4922</text>
<text text-anchor="start" x="541.5" y="-79.8" font-family="Helvetica,sans-Serif" font-size="14.00">value = 1.889</text>
</g>
<!-- 59&#45;&gt;85 -->
<g id="edge13" class="edge">
<title>59&#45;&gt;85</title>
<path fill="none" stroke="black" d="M525.1,-175.88C532.45,-167.07 540.47,-157.43 548.14,-148.24"/>
<polygon fill="black" stroke="black" points="551.04,-150.22 554.75,-140.3 545.66,-145.74 551.04,-150.22"/>
</g>
<!-- 61 -->
<g id="node12" class="node">
<title>61</title>
<path fill="#c0c0c0" stroke="black" d="M368.5,-36C368.5,-36 338.5,-36 338.5,-36 332.5,-36 326.5,-30 326.5,-24 326.5,-24 326.5,-12 326.5,-12 326.5,-6 332.5,0 338.5,0 338.5,0 368.5,0 368.5,0 374.5,0 380.5,-6 380.5,-12 380.5,-12 380.5,-24 380.5,-24 380.5,-30 374.5,-36 368.5,-36"/>
<text text-anchor="middle" x="353.5" y="-14.3" font-family="Helvetica,sans-Serif" font-size="14.00">(...)</text>
</g>
<!-- 60&#45;&gt;61 -->
<g id="edge11" class="edge">
<title>60&#45;&gt;61</title>
<path fill="none" stroke="black" d="M390.47,-72C384.2,-63 377.48,-53.38 371.53,-44.84"/>
<polygon fill="black" stroke="black" points="374.23,-42.6 365.64,-36.4 368.49,-46.61 374.23,-42.6"/>
</g>
<!-- 66 -->
<g id="node13" class="node">
<title>66</title>
<path fill="#c0c0c0" stroke="black" d="M440.5,-36C440.5,-36 410.5,-36 410.5,-36 404.5,-36 398.5,-30 398.5,-24 398.5,-24 398.5,-12 398.5,-12 398.5,-6 404.5,0 410.5,0 410.5,0 440.5,0 440.5,0 446.5,0 452.5,-6 452.5,-12 452.5,-12 452.5,-24 452.5,-24 452.5,-30 446.5,-36 440.5,-36"/>
<text text-anchor="middle" x="425.5" y="-14.3" font-family="Helvetica,sans-Serif" font-size="14.00">(...)</text>
</g>
<!-- 60&#45;&gt;66 -->
<g id="edge12" class="edge">
<title>60&#45;&gt;66</title>
<path fill="none" stroke="black" d="M418.11,-72C419.28,-63.56 420.53,-54.59 421.67,-46.47"/>
<polygon fill="black" stroke="black" points="425.16,-46.79 423.07,-36.4 418.22,-45.82 425.16,-46.79"/>
</g>
<!-- 86 -->
<g id="node15" class="node">
<title>86</title>
<path fill="#c0c0c0" stroke="black" d="M537.5,-36C537.5,-36 507.5,-36 507.5,-36 501.5,-36 495.5,-30 495.5,-24 495.5,-24 495.5,-12 495.5,-12 495.5,-6 501.5,0 507.5,0 507.5,0 537.5,0 537.5,0 543.5,0 549.5,-6 549.5,-12 549.5,-12 549.5,-24 549.5,-24 549.5,-30 543.5,-36 537.5,-36"/>
<text text-anchor="middle" x="522.5" y="-14.3" font-family="Helvetica,sans-Serif" font-size="14.00">(...)</text>
</g>
<!-- 85&#45;&gt;86 -->
<g id="edge14" class="edge">
<title>85&#45;&gt;86</title>
<path fill="none" stroke="black" d="M559.47,-72C553.2,-63 546.48,-53.38 540.53,-44.84"/>
<polygon fill="black" stroke="black" points="543.23,-42.6 534.64,-36.4 537.49,-46.61 543.23,-42.6"/>
</g>
<!-- 115 -->
<g id="node16" class="node">
<title>115</title>
<path fill="#c0c0c0" stroke="black" d="M609.5,-36C609.5,-36 579.5,-36 579.5,-36 573.5,-36 567.5,-30 567.5,-24 567.5,-24 567.5,-12 567.5,-12 567.5,-6 573.5,0 579.5,0 579.5,0 609.5,0 609.5,0 615.5,0 621.5,-6 621.5,-12 621.5,-12 621.5,-24 621.5,-24 621.5,-30 615.5,-36 609.5,-36"/>
<text text-anchor="middle" x="594.5" y="-14.3" font-family="Helvetica,sans-Serif" font-size="14.00">(...)</text>
</g>
<!-- 85&#45;&gt;115 -->
<g id="edge15" class="edge">
<title>85&#45;&gt;115</title>
<path fill="none" stroke="black" d="M587.11,-72C588.28,-63.56 589.53,-54.59 590.67,-46.47"/>
<polygon fill="black" stroke="black" points="594.16,-46.79 592.07,-36.4 587.22,-45.82 594.16,-46.79"/>
</g>
<!-- 135 -->
<g id="node18" class="node">
<title>135</title>
<path fill="#f1bd97" stroke="black" d="M900,-244C900,-244 773,-244 773,-244 767,-244 761,-238 761,-232 761,-232 761,-188 761,-188 761,-182 767,-176 773,-176 773,-176 900,-176 900,-176 906,-176 912,-182 912,-188 912,-188 912,-232 912,-232 912,-238 906,-244 900,-244"/>
<text text-anchor="start" x="780.5" y="-228.8" font-family="Helvetica,sans-Serif" font-size="14.00">AveOccup ≤ 2.739</text>
<text text-anchor="start" x="769" y="-213.8" font-family="Helvetica,sans-Serif" font-size="14.00">squared_error = 0.893</text>
<text text-anchor="start" x="788" y="-198.8" font-family="Helvetica,sans-Serif" font-size="14.00">samples = 2317</text>
<text text-anchor="start" x="795.5" y="-183.8" font-family="Helvetica,sans-Serif" font-size="14.00">value = 2.924</text>
</g>
<!-- 134&#45;&gt;135 -->
<g id="edge17" class="edge">
<title>134&#45;&gt;135</title>
<path fill="none" stroke="black" d="M836.5,-279.88C836.5,-271.78 836.5,-262.98 836.5,-254.47"/>
<polygon fill="black" stroke="black" points="840,-254.3 836.5,-244.3 833,-254.3 840,-254.3"/>
</g>
<!-- 156 -->
<g id="node25" class="node">
<title>156</title>
<path fill="#ea975c" stroke="black" d="M1153,-244C1153,-244 1026,-244 1026,-244 1020,-244 1014,-238 1014,-232 1014,-232 1014,-188 1014,-188 1014,-182 1020,-176 1026,-176 1026,-176 1153,-176 1153,-176 1159,-176 1165,-182 1165,-188 1165,-188 1165,-232 1165,-232 1165,-238 1159,-244 1153,-244"/>
<text text-anchor="start" x="1042.5" y="-228.8" font-family="Helvetica,sans-Serif" font-size="14.00">MedInc ≤ 7.815</text>
<text text-anchor="start" x="1022" y="-213.8" font-family="Helvetica,sans-Serif" font-size="14.00">squared_error = 0.776</text>
<text text-anchor="start" x="1041" y="-198.8" font-family="Helvetica,sans-Serif" font-size="14.00">samples = 1000</text>
<text text-anchor="start" x="1048.5" y="-183.8" font-family="Helvetica,sans-Serif" font-size="14.00">value = 4.224</text>
</g>
<!-- 134&#45;&gt;156 -->
<g id="edge24" class="edge">
<title>134&#45;&gt;156</title>
<path fill="none" stroke="black" d="M912.07,-282.53C941.1,-270.83 974.44,-257.39 1004.32,-245.34"/>
<polygon fill="black" stroke="black" points="1005.92,-248.47 1013.89,-241.48 1003.3,-241.98 1005.92,-248.47"/>
</g>
<!-- 136 -->
<g id="node19" class="node">
<title>136</title>
<path fill="#eeaf81" stroke="black" d="M815,-140C815,-140 688,-140 688,-140 682,-140 676,-134 676,-128 676,-128 676,-84 676,-84 676,-78 682,-72 688,-72 688,-72 815,-72 815,-72 821,-72 827,-78 827,-84 827,-84 827,-128 827,-128 827,-134 821,-140 815,-140"/>
<text text-anchor="start" x="699" y="-124.8" font-family="Helvetica,sans-Serif" font-size="14.00">HouseAge ≤ 19.5</text>
<text text-anchor="start" x="684" y="-109.8" font-family="Helvetica,sans-Serif" font-size="14.00">squared_error = 0.989</text>
<text text-anchor="start" x="706.5" y="-94.8" font-family="Helvetica,sans-Serif" font-size="14.00">samples = 958</text>
<text text-anchor="start" x="710.5" y="-79.8" font-family="Helvetica,sans-Serif" font-size="14.00">value = 3.416</text>
</g>
<!-- 135&#45;&gt;136 -->
<g id="edge18" class="edge">
<title>135&#45;&gt;136</title>
<path fill="none" stroke="black" d="M808.9,-175.88C801.55,-167.07 793.53,-157.43 785.86,-148.24"/>
<polygon fill="black" stroke="black" points="788.34,-145.74 779.25,-140.3 782.96,-150.22 788.34,-145.74"/>
</g>
<!-- 149 -->
<g id="node22" class="node">
<title>149</title>
<path fill="#f3c7a7" stroke="black" d="M984,-140C984,-140 857,-140 857,-140 851,-140 845,-134 845,-128 845,-128 845,-84 845,-84 845,-78 851,-72 857,-72 857,-72 984,-72 984,-72 990,-72 996,-78 996,-84 996,-84 996,-128 996,-128 996,-134 990,-140 984,-140"/>
<text text-anchor="start" x="873.5" y="-124.8" font-family="Helvetica,sans-Serif" font-size="14.00">MedInc ≤ 5.689</text>
<text text-anchor="start" x="853" y="-109.8" font-family="Helvetica,sans-Serif" font-size="14.00">squared_error = 0.536</text>
<text text-anchor="start" x="872" y="-94.8" font-family="Helvetica,sans-Serif" font-size="14.00">samples = 1359</text>
<text text-anchor="start" x="879.5" y="-79.8" font-family="Helvetica,sans-Serif" font-size="14.00">value = 2.578</text>
</g>
<!-- 135&#45;&gt;149 -->
<g id="edge21" class="edge">
<title>135&#45;&gt;149</title>
<path fill="none" stroke="black" d="M863.77,-175.88C871.03,-167.07 878.97,-157.43 886.54,-148.24"/>
<polygon fill="black" stroke="black" points="889.42,-150.24 893.08,-140.3 884.02,-145.79 889.42,-150.24"/>
</g>
<!-- 137 -->
<g id="node20" class="node">
<title>137</title>
<path fill="#c0c0c0" stroke="black" d="M706.5,-36C706.5,-36 676.5,-36 676.5,-36 670.5,-36 664.5,-30 664.5,-24 664.5,-24 664.5,-12 664.5,-12 664.5,-6 670.5,0 676.5,0 676.5,0 706.5,0 706.5,0 712.5,0 718.5,-6 718.5,-12 718.5,-12 718.5,-24 718.5,-24 718.5,-30 712.5,-36 706.5,-36"/>
<text text-anchor="middle" x="691.5" y="-14.3" font-family="Helvetica,sans-Serif" font-size="14.00">(...)</text>
</g>
<!-- 136&#45;&gt;137 -->
<g id="edge19" class="edge">
<title>136&#45;&gt;137</title>
<path fill="none" stroke="black" d="M728.47,-72C722.2,-63 715.48,-53.38 709.53,-44.84"/>
<polygon fill="black" stroke="black" points="712.23,-42.6 703.64,-36.4 706.49,-46.61 712.23,-42.6"/>
</g>
<!-- 140 -->
<g id="node21" class="node">
<title>140</title>
<path fill="#c0c0c0" stroke="black" d="M778.5,-36C778.5,-36 748.5,-36 748.5,-36 742.5,-36 736.5,-30 736.5,-24 736.5,-24 736.5,-12 736.5,-12 736.5,-6 742.5,0 748.5,0 748.5,0 778.5,0 778.5,0 784.5,0 790.5,-6 790.5,-12 790.5,-12 790.5,-24 790.5,-24 790.5,-30 784.5,-36 778.5,-36"/>
<text text-anchor="middle" x="763.5" y="-14.3" font-family="Helvetica,sans-Serif" font-size="14.00">(...)</text>
</g>
<!-- 136&#45;&gt;140 -->
<g id="edge20" class="edge">
<title>136&#45;&gt;140</title>
<path fill="none" stroke="black" d="M756.11,-72C757.28,-63.56 758.53,-54.59 759.67,-46.47"/>
<polygon fill="black" stroke="black" points="763.16,-46.79 761.07,-36.4 756.22,-45.82 763.16,-46.79"/>
</g>
<!-- 150 -->
<g id="node23" class="node">
<title>150</title>
<path fill="#c0c0c0" stroke="black" d="M875.5,-36C875.5,-36 845.5,-36 845.5,-36 839.5,-36 833.5,-30 833.5,-24 833.5,-24 833.5,-12 833.5,-12 833.5,-6 839.5,0 845.5,0 845.5,0 875.5,0 875.5,0 881.5,0 887.5,-6 887.5,-12 887.5,-12 887.5,-24 887.5,-24 887.5,-30 881.5,-36 875.5,-36"/>
<text text-anchor="middle" x="860.5" y="-14.3" font-family="Helvetica,sans-Serif" font-size="14.00">(...)</text>
</g>
<!-- 149&#45;&gt;150 -->
<g id="edge22" class="edge">
<title>149&#45;&gt;150</title>
<path fill="none" stroke="black" d="M897.47,-72C891.2,-63 884.48,-53.38 878.53,-44.84"/>
<polygon fill="black" stroke="black" points="881.23,-42.6 872.64,-36.4 875.49,-46.61 881.23,-42.6"/>
</g>
<!-- 151 -->
<g id="node24" class="node">
<title>151</title>
<path fill="#c0c0c0" stroke="black" d="M947.5,-36C947.5,-36 917.5,-36 917.5,-36 911.5,-36 905.5,-30 905.5,-24 905.5,-24 905.5,-12 905.5,-12 905.5,-6 911.5,0 917.5,0 917.5,0 947.5,0 947.5,0 953.5,0 959.5,-6 959.5,-12 959.5,-12 959.5,-24 959.5,-24 959.5,-30 953.5,-36 947.5,-36"/>
<text text-anchor="middle" x="932.5" y="-14.3" font-family="Helvetica,sans-Serif" font-size="14.00">(...)</text>
</g>
<!-- 149&#45;&gt;151 -->
<g id="edge23" class="edge">
<title>149&#45;&gt;151</title>
<path fill="none" stroke="black" d="M925.11,-72C926.28,-63.56 927.53,-54.59 928.67,-46.47"/>
<polygon fill="black" stroke="black" points="932.16,-46.79 930.07,-36.4 925.22,-45.82 932.16,-46.79"/>
</g>
<!-- 157 -->
<g id="node26" class="node">
<title>157</title>
<path fill="#eda674" stroke="black" d="M1153,-140C1153,-140 1026,-140 1026,-140 1020,-140 1014,-134 1014,-128 1014,-128 1014,-84 1014,-84 1014,-78 1020,-72 1026,-72 1026,-72 1153,-72 1153,-72 1159,-72 1165,-78 1165,-84 1165,-84 1165,-128 1165,-128 1165,-134 1159,-140 1153,-140"/>
<text text-anchor="start" x="1037" y="-124.8" font-family="Helvetica,sans-Serif" font-size="14.00">HouseAge ≤ 26.5</text>
<text text-anchor="start" x="1022" y="-109.8" font-family="Helvetica,sans-Serif" font-size="14.00">squared_error = 0.773</text>
<text text-anchor="start" x="1044.5" y="-94.8" font-family="Helvetica,sans-Serif" font-size="14.00">samples = 423</text>
<text text-anchor="start" x="1048.5" y="-79.8" font-family="Helvetica,sans-Serif" font-size="14.00">value = 3.702</text>
</g>
<!-- 156&#45;&gt;157 -->
<g id="edge25" class="edge">
<title>156&#45;&gt;157</title>
<path fill="none" stroke="black" d="M1089.5,-175.88C1089.5,-167.78 1089.5,-158.98 1089.5,-150.47"/>
<polygon fill="black" stroke="black" points="1093,-150.3 1089.5,-140.3 1086,-150.3 1093,-150.3"/>
</g>
<!-- 162 -->
<g id="node29" class="node">
<title>162</title>
<path fill="#e78c4b" stroke="black" d="M1322,-140C1322,-140 1195,-140 1195,-140 1189,-140 1183,-134 1183,-128 1183,-128 1183,-84 1183,-84 1183,-78 1189,-72 1195,-72 1195,-72 1322,-72 1322,-72 1328,-72 1334,-78 1334,-84 1334,-84 1334,-128 1334,-128 1334,-134 1328,-140 1322,-140"/>
<text text-anchor="start" x="1211.5" y="-124.8" font-family="Helvetica,sans-Serif" font-size="14.00">MedInc ≤ 8.865</text>
<text text-anchor="start" x="1191" y="-109.8" font-family="Helvetica,sans-Serif" font-size="14.00">squared_error = 0.432</text>
<text text-anchor="start" x="1213.5" y="-94.8" font-family="Helvetica,sans-Serif" font-size="14.00">samples = 577</text>
<text text-anchor="start" x="1217.5" y="-79.8" font-family="Helvetica,sans-Serif" font-size="14.00">value = 4.606</text>
</g>
<!-- 156&#45;&gt;162 -->
<g id="edge28" class="edge">
<title>156&#45;&gt;162</title>
<path fill="none" stroke="black" d="M1144.37,-175.88C1160.54,-166.12 1178.36,-155.37 1195.03,-145.31"/>
<polygon fill="black" stroke="black" points="1196.86,-148.29 1203.62,-140.12 1193.25,-142.3 1196.86,-148.29"/>
</g>
<!-- 158 -->
<g id="node27" class="node">
<title>158</title>
<path fill="#c0c0c0" stroke="black" d="M1062.5,-36C1062.5,-36 1032.5,-36 1032.5,-36 1026.5,-36 1020.5,-30 1020.5,-24 1020.5,-24 1020.5,-12 1020.5,-12 1020.5,-6 1026.5,0 1032.5,0 1032.5,0 1062.5,0 1062.5,0 1068.5,0 1074.5,-6 1074.5,-12 1074.5,-12 1074.5,-24 1074.5,-24 1074.5,-30 1068.5,-36 1062.5,-36"/>
<text text-anchor="middle" x="1047.5" y="-14.3" font-family="Helvetica,sans-Serif" font-size="14.00">(...)</text>
</g>
<!-- 157&#45;&gt;158 -->
<g id="edge26" class="edge">
<title>157&#45;&gt;158</title>
<path fill="none" stroke="black" d="M1073.38,-72C1069.13,-63.28 1064.59,-53.98 1060.52,-45.65"/>
<polygon fill="black" stroke="black" points="1063.53,-43.85 1056,-36.4 1057.24,-46.93 1063.53,-43.85"/>
</g>
<!-- 159 -->
<g id="node28" class="node">
<title>159</title>
<path fill="#c0c0c0" stroke="black" d="M1134.5,-36C1134.5,-36 1104.5,-36 1104.5,-36 1098.5,-36 1092.5,-30 1092.5,-24 1092.5,-24 1092.5,-12 1092.5,-12 1092.5,-6 1098.5,0 1104.5,0 1104.5,0 1134.5,0 1134.5,0 1140.5,0 1146.5,-6 1146.5,-12 1146.5,-12 1146.5,-24 1146.5,-24 1146.5,-30 1140.5,-36 1134.5,-36"/>
<text text-anchor="middle" x="1119.5" y="-14.3" font-family="Helvetica,sans-Serif" font-size="14.00">(...)</text>
</g>
<!-- 157&#45;&gt;159 -->
<g id="edge27" class="edge">
<title>157&#45;&gt;159</title>
<path fill="none" stroke="black" d="M1101.01,-72C1104.02,-63.38 1107.23,-54.19 1110.11,-45.92"/>
<polygon fill="black" stroke="black" points="1113.44,-47 1113.43,-36.4 1106.83,-44.69 1113.44,-47"/>
</g>
<!-- 163 -->
<g id="node30" class="node">
<title>163</title>
<path fill="#c0c0c0" stroke="black" d="M1237.5,-36C1237.5,-36 1207.5,-36 1207.5,-36 1201.5,-36 1195.5,-30 1195.5,-24 1195.5,-24 1195.5,-12 1195.5,-12 1195.5,-6 1201.5,0 1207.5,0 1207.5,0 1237.5,0 1237.5,0 1243.5,0 1249.5,-6 1249.5,-12 1249.5,-12 1249.5,-24 1249.5,-24 1249.5,-30 1243.5,-36 1237.5,-36"/>
<text text-anchor="middle" x="1222.5" y="-14.3" font-family="Helvetica,sans-Serif" font-size="14.00">(...)</text>
</g>
<!-- 162&#45;&gt;163 -->
<g id="edge29" class="edge">
<title>162&#45;&gt;163</title>
<path fill="none" stroke="black" d="M1244.68,-72C1241.04,-63.28 1237.14,-53.98 1233.66,-45.65"/>
<polygon fill="black" stroke="black" points="1236.88,-44.28 1229.79,-36.4 1230.42,-46.98 1236.88,-44.28"/>
</g>
<!-- 166 -->
<g id="node31" class="node">
<title>166</title>
<path fill="#c0c0c0" stroke="black" d="M1309.5,-36C1309.5,-36 1279.5,-36 1279.5,-36 1273.5,-36 1267.5,-30 1267.5,-24 1267.5,-24 1267.5,-12 1267.5,-12 1267.5,-6 1273.5,0 1279.5,0 1279.5,0 1309.5,0 1309.5,0 1315.5,0 1321.5,-6 1321.5,-12 1321.5,-12 1321.5,-24 1321.5,-24 1321.5,-30 1315.5,-36 1309.5,-36"/>
<text text-anchor="middle" x="1294.5" y="-14.3" font-family="Helvetica,sans-Serif" font-size="14.00">(...)</text>
</g>
<!-- 162&#45;&gt;166 -->
<g id="edge30" class="edge">
<title>162&#45;&gt;166</title>
<path fill="none" stroke="black" d="M1272.32,-72C1275.96,-63.28 1279.86,-53.98 1283.34,-45.65"/>
<polygon fill="black" stroke="black" points="1286.58,-46.98 1287.21,-36.4 1280.12,-44.28 1286.58,-46.98"/>
</g>
</g>
</svg>
